<svg id="Layer_1" data-name="Layer 1" xmlns="http://www.w3.org/2000/svg" viewBox="0 0 144 60"><defs><style>.cls-1{fill:none;}.cls-2{fill:#48ae40;}.cls-3{fill:#e20b17;}.cls-4{isolation:isolate;}.cls-5{fill:#ffffff;}.cls-6{fill:#d1d5db;}</style></defs><g id="Path_22334" data-name="Path 22334"><path class="cls-1" d="M30,1A29,29,0,1,1,1,30H1A29,29,0,0,1,30,1Z"/><path class="cls-2" d="M30,3.7A26.28,26.28,0,1,0,56.24,30v0A26.31,26.31,0,0,0,30,3.7M30,1A29,29,0,1,1,1,30H1A29,29,0,0,1,30,1Z"/></g><path id="Path_22309" data-name="Path 22309" class="cls-3" d="M25.26,43.87c-1.61-10.22.58-8-9.62-9.66,4.64-2.92,8.72-5.5,12.82-8.07a125.79,125.79,0,0,1,12.93-7.35Z"/><g id="Group_34200" data-name="Group 34200"><path id="Path_22321" data-name="Path 22321" class="cls-2" d="M28.55,55.43A24.76,24.76,0,0,1,19.07,53a26.5,26.5,0,0,1-5.34-3.36,1,1,0,0,1-.42-1.05c.11-.76,0-.86-.72-.72a1.14,1.14,0,0,1-1.17-.39A25.46,25.46,0,0,1,5,35.14,24.24,24.24,0,0,1,4.53,28,25.44,25.44,0,0,1,11.64,12.2a.68.68,0,0,1,.62-.26h.43c.68.1.76,0,.66-.67a1,1,0,0,1,.4-1.09,25.55,25.55,0,0,1,11.3-5.29,24.36,24.36,0,0,1,6.76-.41,25.52,25.52,0,0,1,14.75,6.07.59.59,0,0,1,.24.54v.44c0,.49.07.56.55.46a1.1,1.1,0,0,1,1.14.38A25.49,25.49,0,0,1,55,25a20.44,20.44,0,0,1,.44,3.9v2a22,22,0,0,1-.5,4.2,25.29,25.29,0,0,1-6.47,12.4,1,1,0,0,1-1,.38c-.65-.13-.7,0-.67.61v.11a.78.78,0,0,1-.31.79,25.92,25.92,0,0,1-5.78,3.69,24.75,24.75,0,0,1-9.26,2.33C31.15,55.45,28.81,55.45,28.55,55.43Zm.1-49.51a22.15,22.15,0,0,0-5.35.93A24.17,24.17,0,0,0,6,28.27a1.26,1.26,0,0,0,.48,1.29c.51.38.49.41,0,.85-.26.24-.57.43-.52.9.12,1.08.2,2.16.42,3.22a24.07,24.07,0,0,0,5.35,11,23.66,23.66,0,0,0,10.86,7.26,23.39,23.39,0,0,0,5.68,1.09c.5,0,.9.06,1.24-.4s.43-.53.9,0c.2.23.36.52.75.47.63-.07,1.26-.09,1.88-.17a24.06,24.06,0,0,0,19.7-16.14,23,23,0,0,0,1.2-5.85c0-.56.1-1-.45-1.41s-.51-.46,0-.93c.27-.25.53-.46.49-.91a26.25,26.25,0,0,0-.72-4.49,23.78,23.78,0,0,0-15.94-17A23.94,23.94,0,0,0,31.44,5.9a1,1,0,0,0-1,.45c-.51.6-.52.58-1,0-.21-.23-.39-.56-.77-.45Z"/></g><g class="cls-4"><path class="cls-5" d="M84,16.47a4.79,4.79,0,0,1,2,2,6.44,6.44,0,0,1,.73,3.18V29.7H83.9V22.05A4,4,0,0,0,83,19.23a3.28,3.28,0,0,0-2.51-1,3.32,3.32,0,0,0-2.52,1A4,4,0,0,0,77,22.05V29.7H74.21V22.05a4,4,0,0,0-.92-2.82,3.26,3.26,0,0,0-2.5-1,3.32,3.32,0,0,0-2.52,1,4,4,0,0,0-.93,2.82V29.7H64.5V16h2.84v1.56a4.65,4.65,0,0,1,1.76-1.31,5.48,5.48,0,0,1,2.28-.48,6.13,6.13,0,0,1,2.93.7,4.71,4.71,0,0,1,2,2,4.55,4.55,0,0,1,1.94-2,5.69,5.69,0,0,1,2.83-.74A6.1,6.1,0,0,1,84,16.47Z"/><path class="cls-5" d="M102.74,23.91H92.29a3.77,3.77,0,0,0,3.9,3.63,3.32,3.32,0,0,0,3.23-1.91h3a6.15,6.15,0,0,1-2.25,3.09,6.6,6.6,0,0,1-4,1.2A7,7,0,0,1,92.67,29a6.3,6.3,0,0,1-2.43-2.48,7.57,7.57,0,0,1-.88-3.71,7.68,7.68,0,0,1,.86-3.72,6.08,6.08,0,0,1,2.4-2.47,7.2,7.2,0,0,1,3.57-.87,7,7,0,0,1,3.45.85A6,6,0,0,1,102,19a7.17,7.17,0,0,1,.84,3.51A8.32,8.32,0,0,1,102.74,23.91Zm-2.85-2.28a3.24,3.24,0,0,0-1.12-2.51,4,4,0,0,0-2.71-.94,3.66,3.66,0,0,0-2.51.93,4,4,0,0,0-1.24,2.52Z"/><path class="cls-5" d="M105.54,19.15a6.17,6.17,0,0,1,2.33-2.47,6.27,6.27,0,0,1,3.29-.89,6.41,6.41,0,0,1,2.64.59,5.44,5.44,0,0,1,2.08,1.55v-6.6h2.85V29.7h-2.85V27.64A5.39,5.39,0,0,1,114,29.28a6,6,0,0,1-2.82.64,6.13,6.13,0,0,1-3.26-.9,6.36,6.36,0,0,1-2.33-2.54,7.66,7.66,0,0,1-.86-3.68A7.46,7.46,0,0,1,105.54,19.15Zm9.75,1.24a4,4,0,0,0-7.12,0,4.88,4.88,0,0,0-.59,2.45,5.08,5.08,0,0,0,.59,2.48,4.18,4.18,0,0,0,1.54,1.63,4,4,0,0,0,2,.56,4,4,0,0,0,3.56-2.15,5,5,0,0,0,.59-2.47A4.92,4.92,0,0,0,115.29,20.39Z"/></g><g class="cls-4"><path class="cls-2" d="M122.61,13.68a1.76,1.76,0,0,1-.52-1.29,1.79,1.79,0,0,1,.52-1.29,1.75,1.75,0,0,1,1.29-.52,1.72,1.72,0,0,1,1.27.52,1.75,1.75,0,0,1,.52,1.29,1.79,1.79,0,0,1-1.79,1.82A1.76,1.76,0,0,1,122.61,13.68ZM125.29,16V29.7h-2.83V16Z"/></g><g class="cls-4"><path class="cls-5" d="M128.93,19.15a6.26,6.26,0,0,1,5.6-3.36,6,6,0,0,1,2.81.64A5.74,5.74,0,0,1,139.27,18V16h2.86V29.7h-2.86v-2a5.65,5.65,0,0,1-2,1.62,6.39,6.39,0,0,1-6.06-.26,6.41,6.41,0,0,1-2.32-2.54,7.78,7.78,0,0,1-.86-3.68A7.57,7.57,0,0,1,128.93,19.15Zm9.76,1.24a4.06,4.06,0,0,0-5.6-1.6,4,4,0,0,0-1.53,1.56A4.88,4.88,0,0,0,131,22.8a5.08,5.08,0,0,0,.58,2.48,4.18,4.18,0,0,0,1.54,1.63,4,4,0,0,0,2,.56,4,4,0,0,0,3.57-2.15,5.15,5.15,0,0,0,.58-2.47A5,5,0,0,0,138.69,20.39Z"/></g><g id="pan_arab" data-name="pan arab"><g class="cls-4"><path class="cls-6" d="M69.35,35.1c2.52,0,4.4,1.85,4.4,4.75s-1.88,4.78-4.4,4.78a4,4,0,0,1-3.68-2.17v6.4H64.5V35.23h1.17v2A3.92,3.92,0,0,1,69.35,35.1Zm-.24,1a3.46,3.46,0,0,0-3.44,3.73,3.46,3.46,0,0,0,3.44,3.73,3.42,3.42,0,0,0,3.44-3.74A3.38,3.38,0,0,0,69.11,36.13Z"/><path class="cls-6" d="M79.82,35.1a3.85,3.85,0,0,1,3.66,2.17v-2h1.19v9.26H83.48V42.44a3.9,3.9,0,0,1-3.68,2.19c-2.52,0-4.4-1.89-4.4-4.78S77.28,35.1,79.82,35.1Zm.22,1a3.38,3.38,0,0,0-3.44,3.72,3.45,3.45,0,1,0,6.88,0A3.45,3.45,0,0,0,80,36.13Z"/><path class="cls-6" d="M94.31,39.2c0-2.05-1.11-3.1-2.81-3.1s-2.93,1.08-2.93,3.34v5.05H87.38V35.23h1.19v1.58a3.38,3.38,0,0,1,3.15-1.75c2.1,0,3.76,1.29,3.76,4v5.42H94.31Z"/><path class="cls-6" d="M106.64,35.1a3.87,3.87,0,0,1,3.66,2.17v-2h1.18v9.26H110.3V42.44a3.91,3.91,0,0,1-3.68,2.19c-2.53,0-4.41-1.89-4.41-4.78S104.09,35.1,106.64,35.1Zm.22,1a3.38,3.38,0,0,0-3.44,3.72,3.42,3.42,0,0,0,3.44,3.74,3.45,3.45,0,0,0,3.44-3.73A3.46,3.46,0,0,0,106.86,36.13Z"/><path class="cls-6" d="M115.38,44.49H114.2V35.23h1.18v1.65a3.19,3.19,0,0,1,3.17-1.82V36.3h-.32c-1.54,0-2.85.7-2.85,3Z"/><path class="cls-6" d="M124.21,35.1a3.88,3.88,0,0,1,3.67,2.17v-2h1.18v9.26h-1.18V42.44a3.93,3.93,0,0,1-3.68,2.19c-2.53,0-4.41-1.89-4.41-4.78S121.67,35.1,124.21,35.1Zm.22,1A3.38,3.38,0,0,0,121,39.85a3.42,3.42,0,0,0,3.44,3.74,3.45,3.45,0,0,0,3.45-3.73A3.46,3.46,0,0,0,124.43,36.13Z"/><path class="cls-6" d="M136.62,35.1c2.54,0,4.41,1.85,4.41,4.75s-1.88,4.78-4.41,4.78a3.9,3.9,0,0,1-3.68-2.17v2h-1.17V31.94h1.17v5.34A3.93,3.93,0,0,1,136.62,35.1Zm-.24,1a3.46,3.46,0,0,0-3.44,3.73,3.46,3.46,0,0,0,3.44,3.73,3.42,3.42,0,0,0,3.44-3.74A3.38,3.38,0,0,0,136.38,36.13Z"/></g></g></svg>